<svg xmlns="http://www.w3.org/2000/svg">
    <defs>
        <style>
        .img { display: none }
        .img:target { display: inline }
        </style>
    </defs>

		<svg viewBox="0 0 10 13" fill="none" xmlns="http://www.w3.org/2000/svg">
			<g id="city" class="img">
				<path d="M10 4.91892C10 7.63556 7.14286 10.8919 5 13C2.5 10.5405 0 7.63556 0 4.91892C0 2.20228 2.23858 0 5 0C7.76142 0 10 2.20228 10 4.91892Z" fill="white"/>
			</g>
		</svg>

		<svg viewBox="0 0 12 12" fill="none" xmlns="http://www.w3.org/2000/svg">
			<g id="phone" class="img">
				<path d="M11.4058 8.51613L10.4048 7.51668C10.1901 7.30149 9.9168 7.15417 9.619 7.09304C9.3212 7.03192 9.012 7.05969 8.72986 7.17291L7.76658 7.55557C7.68257 7.58945 7.59044 7.59782 7.5017 7.57963C7.41295 7.56143 7.33154 7.51749 7.26764 7.45329L4.54541 4.73107C4.48192 4.66704 4.43854 4.58583 4.42065 4.49745C4.40275 4.40906 4.41111 4.31737 4.44469 4.23368L4.83008 3.27041C4.9428 2.98798 4.97006 2.67866 4.90845 2.38088C4.84685 2.0831 4.69911 1.80998 4.48358 1.59546L3.48414 0.594462C3.31729 0.427572 3.11249 0.303592 2.88727 0.233132C2.66205 0.162672 2.42311 0.147829 2.1909 0.189876C1.95869 0.231922 1.74012 0.329605 1.55391 0.474564C1.36769 0.619523 1.21937 0.807443 1.12164 1.02224L0.492026 2.40863C0.189083 3.08071 0.0973009 3.82892 0.228821 4.55429C0.360341 5.27966 0.708966 5.94802 1.22858 6.47096L5.5293 10.7717C6.05214 11.2915 6.72048 11.6402 7.44588 11.7718C8.17128 11.9034 8.91954 11.8116 9.59164 11.5086L10.9772 10.8786C11.192 10.7809 11.38 10.6326 11.5249 10.4464C11.6699 10.2601 11.7676 10.0416 11.8096 9.80936C11.8517 9.57715 11.8368 9.33821 11.7664 9.11299C11.6959 8.88777 11.5719 8.68297 11.405 8.51613H11.4058Z" fill="white"/>
			</g>
		</svg>


		<svg viewBox="0 0 9 9" fill="none" xmlns="http://www.w3.org/2000/svg">
			<g id="arrow-bottom" class="img">
				<path d="M8.05699 4.69359L4.79102 7.95957L1.52504 4.69359" stroke="#FFDD29" stroke-linecap="round" stroke-linejoin="round"/>
			</g>
		</svg>
		<svg viewBox="0 0 13 13" fill="none" xmlns="http://www.w3.org/2000/svg">
			<g id="arrow-bottom2" class="img">
				<path d="M11.2036 6.20361L6.71289 10.6943L2.22217 6.20361" stroke="#FFDD29" stroke-width="2" stroke-linecap="round" stroke-linejoin="round"/>
			</g>
		</svg>


		<svg viewBox="0 0 15 15" fill="none" xmlns="http://www.w3.org/2000/svg">
			<g id="search" class="img">
				<circle cx="5.4902" cy="5.65194" r="4.73344" stroke="white" stroke-width="1.51351"/>
				<path d="M14.0002 13.6127L9.3335 9.22058" stroke="white" stroke-width="1.51351" stroke-linecap="round"/>
			</g>
		</svg>

		<svg viewBox="0 0 35 49" fill="none" xmlns="http://www.w3.org/2000/svg">
			<g id="arrows" class="img">
				<path d="M30.5312 31.2656L17.2656 44.5311L4.00006 31.2656" stroke="#249EFA" stroke-width="5" stroke-linecap="round" stroke-linejoin="round"/>
				<path d="M30.5312 17.2656L17.2656 30.5311L4.00006 17.2656" stroke="#249EFA" stroke-width="5" stroke-linecap="round" stroke-linejoin="round"/>
			</g>
		</svg>
		<svg viewBox="0 0 35 49" fill="none" xmlns="http://www.w3.org/2000/svg">
			<g id="arrows-hover" class="img">
				<path d="M30.5312 31.2656L17.2656 44.5311L4.00006 31.2656" stroke="#FFDD29" stroke-width="5" stroke-linecap="round" stroke-linejoin="round"/>
				<path d="M30.5312 17.2656L17.2656 30.5311L4.00006 17.2656" stroke="#FFDD29" stroke-width="5" stroke-linecap="round" stroke-linejoin="round"/>
			</g>
		</svg>

		<svg viewBox="0 0 80 80" fill="none" xmlns="http://www.w3.org/2000/svg">
			<g id="probnoe" class="img">
				<path d="M28.3665 46.6667H21.6665V53.3333H58.3332V46.6667H51.6665V38.3333L48.5065 23.7752L51.6665 17.4536V0H44.9998V6.66667H34.9998V0H28.3332V17.4536L31.4899 23.7663L28.4129 37.6115L28.3665 46.6667ZM34.9998 46.6667V38.7004L37.6732 26.6667H42.3265L44.9998 38.7004V46.6667H34.9998ZM44.9998 15.8797L42.9401 20H37.0612L34.9998 15.8797V13.3333H44.9998V15.8797Z" fill="#249EFA"/>
				<path d="M56.6667 26.6667H73.3333V60H6.66667V26.6667H23.3333V20H0V66.6667H36.6667V73.3333H26.6667V80H53.3333V73.3333H43.3333V66.6667H80V20H56.6667V26.6667Z" fill="#249EFA"/>
			</g>
		</svg>

		<svg viewBox="0 0 80 80" fill="none" xmlns="http://www.w3.org/2000/svg">
			<g id="individual" class="img">
				<path d="M31.188 29.0348L1.0415 18.3952L6.68522 63.5417V80H73.3519V63.5417L78.9948 18.3952L48.8483 29.0348L43.3519 22.1631V13.3333H50.0186V6.66667H43.3519V0H36.6852V6.66667H30.0186V13.3333H36.6852V22.1631L31.188 29.0348ZM49.8468 40.957L47.1279 60H32.91L30.1895 40.957L40.0186 28.6702L49.8468 40.957ZM26.778 34.5483L23.1818 39.0446L26.175 60H12.9613L8.99479 28.2715L26.778 34.5483ZM66.6852 73.3333H13.3519V66.6667H66.6852V73.3333ZM71.0415 28.2715L67.075 60H53.8613L56.8561 39.043L53.2599 34.5467L71.0415 28.2715Z" fill="#249EFA"/>
			</g>
		</svg>

		<svg viewBox="0 0 74 74" fill="none" xmlns="http://www.w3.org/2000/svg">
			<g id="group" class="img">
				<path d="M58.5067 58.5833V55.5H52.34L47.2566 23.1002C49.4509 20.6461 50.7983 17.419 50.7983 13.875C50.7983 6.22388 44.573 0 36.9233 0C29.273 0 23.0483 6.22388 23.0483 13.875C23.0483 17.4175 24.3943 20.6446 26.5879 23.0987L21.5451 55.0175L21.5421 55.5H15.34V58.5833C15.34 60.2838 13.9572 61.6667 12.2567 61.6667H9.17334V74H64.6733V61.6667H61.59C59.8895 61.6667 58.5067 60.2838 58.5067 58.5833ZM36.9233 6.16667C41.1735 6.16667 44.6317 9.62488 44.6317 13.875C44.6317 18.1251 41.1735 21.5833 36.9233 21.5833C32.6725 21.5833 29.215 18.1251 29.215 13.875C29.215 9.62488 32.6725 6.16667 36.9233 6.16667ZM32.2283 26.9144C33.6962 27.4466 35.2733 27.75 36.9233 27.75C38.5727 27.75 40.1497 27.4466 41.6176 26.9144L46.1342 55.5H27.7117L32.2283 26.9144ZM58.5067 67.8333H15.34V67.3049C17.9634 66.3737 20.0478 64.2908 20.9775 61.6667H52.8685C53.7996 64.2908 55.8825 66.3752 58.5067 67.3049V67.8333Z" fill="#249EFA"/>
				<path d="M68.3172 4.0641C62.9078 -1.34754 54.105 -1.34754 48.6948 4.0641L53.0549 8.42337C54.5115 6.96828 56.4483 6.16658 58.5064 6.16658C60.5645 6.16658 62.5006 6.96828 63.9557 8.42337C66.9622 11.4299 66.9622 16.3199 63.9557 19.3265C62.5006 20.7815 60.5645 21.5832 58.5064 21.5832C56.4483 21.5832 54.5115 20.7815 53.0549 19.3265L48.6948 23.6857C51.3988 26.3919 54.9526 27.7439 58.5064 27.7439C60.0985 27.7439 61.6853 27.4571 63.2006 26.9143L67.7564 55.7423V73.9999H73.9231V55.4999L68.8411 23.1061C73.704 17.6658 73.5407 9.2868 68.3172 4.0641Z" fill="#249EFA"/>
				<path d="M15.4167 27.7446C18.969 27.7446 22.522 26.3927 25.2275 23.6865L20.8682 19.3272C17.8617 22.3315 12.9702 22.3315 9.96663 19.3272C6.96084 16.3206 6.96084 11.4307 9.96663 8.42411C12.9717 5.41982 17.8617 5.41982 20.8682 8.42411L25.2275 4.06484C19.8166 -1.34681 11.0167 -1.34681 5.60585 4.06484C0.383911 9.28753 0.219055 17.6651 5.07967 23.1053L0.0383912 55.0196L0 74.0007H6.16667V55.743L10.7224 26.9151C12.2377 27.4578 13.8253 27.7446 15.4167 27.7446Z" fill="#249EFA"/>
			</g>
		</svg>

		<svg viewBox="0 0 86 86" fill="none" xmlns="http://www.w3.org/2000/svg">
			<g id="medal" class="img">
				<path d="M71.6668 0H14.3335V19.997L32.8293 30.5659C22.0356 34.6812 14.3335 45.1127 14.3335 57.3333C14.3335 73.139 27.1945 86 43.0002 86C58.8058 86 71.6668 73.139 71.6668 57.3333C71.6668 45.1127 63.9648 34.6812 53.171 30.5659L71.6668 19.997V0ZM43.0002 28.1216L35.8335 24.0265V7.16667H50.1668V24.0283L43.0002 28.1216ZM21.5002 7.16667H28.6668V19.9323L21.5002 15.8363V7.16667ZM64.5002 57.3333C64.5002 69.1891 54.856 78.8333 43.0002 78.8333C31.1444 78.8333 21.5002 69.1891 21.5002 57.3333C21.5002 45.7732 30.6772 36.3425 42.1262 35.8779H43.8741C55.3231 36.3425 64.5002 45.7732 64.5002 57.3333ZM64.5002 15.8363L57.3335 19.9323V7.16667H64.5002V15.8363Z" fill="#249EFA"/>
				<path d="M34.0415 51.9584H39.4165V62.7084H34.0415V69.8751H51.9582V62.7084H46.5832V51.9584H51.9582V44.7917H34.0415V51.9584Z" fill="#249EFA"/>
			</g>
		</svg>

		<svg viewBox="0 0 35 35" fill="none" xmlns="http://www.w3.org/2000/svg">
			<g id="slider-arrow" class="img">
				<path d="M17.5001 31.9999L3.00012 17.5L17.5001 3.00006" stroke="#FFDD29" stroke-width="3" stroke-linecap="round" stroke-linejoin="round"/>
			</g>
		</svg>

		<svg viewBox="0 0 93 79" fill="none" xmlns="http://www.w3.org/2000/svg">
			<g id="camera" class="img">
				<path d="M81.2137 78.4307L92.8115 24.5879L55.7946 16.6144L57.2443 9.88405L63.9746 11.3338L65.4244 4.60343L45.2333 0.254244L43.7836 6.98459L50.514 8.43432L49.0642 15.1647L12.0473 7.19116L0.449498 61.0339L81.2137 78.4307ZM26.4394 38.4617C28.8377 27.3277 39.8457 20.2216 50.9797 22.6199C62.1137 25.0182 69.2198 36.0261 66.8215 47.1601C64.4232 58.2941 53.4153 65.4002 42.2813 63.002C31.1473 60.6037 24.0412 49.5957 26.4394 38.4617ZM75.933 70.2506L60.0273 66.8245C66.7021 63.0963 71.8195 56.6522 73.5519 48.6098C75.2842 40.5674 73.2737 32.5879 68.7257 26.4424L84.6314 29.8685L75.933 70.2506ZM8.62957 55.7533L17.3279 15.3712L33.2336 18.7974C26.5589 22.5255 21.4414 28.9696 19.7091 37.012C17.9768 45.0544 19.9873 53.0339 24.5353 59.1794L8.62957 55.7533Z" fill="#FFDD29"/>
				<path d="M52.8949 30.0747L46.1646 28.625L42.5402 45.4509L56.0009 48.3503L57.4506 41.62L50.7203 40.1702L52.8949 30.0747Z" fill="#FFDD29"/>
			</g>
		</svg>

		<svg viewBox="0 0 52 52" fill="none" xmlns="http://www.w3.org/2000/svg">
			<g id="video-arrow" class="img">
				<path d="M33.6397 25.6719L25.918 0.130826L51.4591 25.6719L25.918 51.2129L33.6397 25.6719Z" fill="#249EFA"/>
			</g>
		</svg>

		<svg viewBox="0 0 22 14" fill="none" xmlns="http://www.w3.org/2000/svg">
			<g id="vk" class="img">
				<path d="M21.8834 12.0604C21.8567 12.003 21.8319 11.9554 21.8088 11.9172C21.4271 11.2298 20.6977 10.386 19.621 9.38561L19.5983 9.3627L19.5869 9.35147L19.5754 9.33996H19.5638C19.0751 8.87412 18.7657 8.56091 18.6361 8.40055C18.399 8.09508 18.3459 7.78587 18.4755 7.47258C18.567 7.23587 18.9109 6.73598 19.5064 5.97222C19.8196 5.56745 20.0677 5.24304 20.2509 4.99863C21.572 3.24219 22.1448 2.1198 21.9691 1.63102L21.9009 1.5168C21.855 1.44803 21.7367 1.38513 21.546 1.32775C21.3548 1.2705 21.1105 1.26104 20.8127 1.29919L17.5138 1.32198C17.4604 1.30304 17.3841 1.30481 17.2847 1.32775C17.1854 1.3507 17.1357 1.36222 17.1357 1.36222L17.0783 1.3909L17.0327 1.42537C16.9945 1.44815 16.9525 1.48823 16.9067 1.54553C16.8611 1.60262 16.8229 1.66962 16.7924 1.74596C16.4333 2.66996 16.0249 3.52905 15.5666 4.32318C15.2841 4.79671 15.0246 5.2071 14.7876 5.55457C14.5509 5.90193 14.3524 6.15785 14.1921 6.3219C14.0317 6.48611 13.8868 6.61767 13.7568 6.71704C13.6269 6.81646 13.5277 6.85847 13.4591 6.8431C13.3903 6.82773 13.3255 6.81249 13.2642 6.79724C13.1573 6.72848 13.0714 6.63496 13.0066 6.51661C12.9415 6.39825 12.8977 6.24929 12.8748 6.06983C12.852 5.89026 12.8385 5.7358 12.8347 5.60593C12.8311 5.47622 12.8328 5.29275 12.8405 5.05605C12.8484 4.81922 12.852 4.65898 12.852 4.57497C12.852 4.28474 12.8577 3.96976 12.869 3.62995C12.8806 3.29013 12.8899 3.02089 12.8977 2.82254C12.9055 2.62398 12.9091 2.41392 12.9091 2.19246C12.9091 1.971 12.8957 1.79732 12.869 1.67126C12.8427 1.54536 12.8023 1.42316 12.7491 1.30469C12.6955 1.18633 12.6171 1.09478 12.5142 1.02979C12.4112 0.964872 12.283 0.913358 12.1305 0.875084C11.7258 0.78349 11.2103 0.733942 10.584 0.726239C9.16376 0.710994 8.25115 0.802707 7.84643 1.00126C7.68607 1.08515 7.54095 1.19977 7.41121 1.34477C7.27372 1.51283 7.25454 1.60454 7.3538 1.61963C7.81204 1.68827 8.13645 1.85248 8.32738 2.1121L8.39619 2.24967C8.44971 2.34892 8.50315 2.52465 8.55663 2.7766C8.61003 3.02855 8.64449 3.30726 8.65965 3.61258C8.69777 4.17012 8.69777 4.64739 8.65965 5.04441C8.62142 5.4416 8.58531 5.7508 8.55085 5.97226C8.51639 6.19372 8.46487 6.37318 8.39619 6.51059C8.32738 6.64804 8.2816 6.73205 8.25866 6.76254C8.23575 6.79303 8.21665 6.81225 8.20149 6.81979C8.10223 6.85782 7.999 6.8772 7.89216 6.8772C7.78516 6.8772 7.65542 6.82368 7.50272 6.71672C7.35006 6.60976 7.19163 6.46285 7.02742 6.27573C6.86321 6.08857 6.67802 5.82703 6.47176 5.49106C6.26567 5.1551 6.05183 4.75804 5.83037 4.29987L5.64714 3.9676C5.5326 3.75384 5.37613 3.44259 5.17758 3.03413C4.9789 2.62551 4.8033 2.23025 4.65064 1.84843C4.58962 1.68807 4.49795 1.56599 4.37578 1.48198L4.31845 1.44751C4.28034 1.41702 4.21916 1.38464 4.13523 1.35014C4.05117 1.31568 3.96347 1.29096 3.87176 1.27576L0.733229 1.29855C0.412512 1.29855 0.194902 1.3712 0.0803198 1.51632L0.0344629 1.58496C0.0115545 1.6232 0 1.68426 0 1.76831C0 1.85232 0.0229084 1.95543 0.0687653 2.07751C0.526933 3.15433 1.02518 4.19283 1.56351 5.19317C2.10184 6.19352 2.56963 6.99933 2.96662 7.60987C3.36368 8.22085 3.76841 8.79749 4.1808 9.33951C4.59319 9.88173 4.86617 10.2292 4.99973 10.3819C5.13345 10.5348 5.23848 10.6491 5.31483 10.7255L5.60124 11.0004C5.78451 11.1837 6.05363 11.4032 6.40873 11.659C6.76391 11.9149 7.15713 12.1668 7.58858 12.4152C8.0201 12.6632 8.52212 12.8656 9.09491 13.0221C9.66762 13.1787 10.225 13.2416 10.7673 13.2113H12.0846C12.3517 13.1882 12.5541 13.1042 12.6917 12.9592L12.7373 12.9018C12.7679 12.8562 12.7966 12.7854 12.8231 12.6901C12.8499 12.5947 12.8632 12.4895 12.8632 12.3751C12.8554 12.0468 12.8804 11.751 12.9375 11.4875C12.9946 11.2242 13.0597 11.0256 13.1324 10.8919C13.2052 10.7583 13.2873 10.6456 13.3786 10.5542C13.4702 10.4626 13.5354 10.4071 13.5737 10.388C13.6117 10.3688 13.6421 10.3557 13.665 10.3479C13.8483 10.2869 14.0639 10.346 14.3124 10.5256C14.5606 10.7051 14.7934 10.9267 15.0112 11.19C15.2288 11.4536 15.4903 11.7493 15.7957 12.0776C16.1013 12.406 16.3685 12.6502 16.5975 12.8108L16.8265 12.9482C16.9795 13.0399 17.178 13.1239 17.4224 13.2003C17.6664 13.2766 17.8801 13.2957 18.0637 13.2575L20.9959 13.2118C21.2859 13.2118 21.5116 13.1638 21.6717 13.0685C21.8321 12.973 21.9274 12.8679 21.9581 12.7535C21.9888 12.639 21.9904 12.5091 21.9639 12.3639C21.9368 12.219 21.91 12.1177 21.8834 12.0604Z" fill="#FFDD29"/>
			</g>
		</svg>
		<svg viewBox="0 0 22 14" fill="none" xmlns="http://www.w3.org/2000/svg">
			<g id="vk-white" class="img">
				<path d="M21.8834 12.0604C21.8567 12.003 21.8319 11.9554 21.8088 11.9172C21.4271 11.2298 20.6977 10.386 19.621 9.38561L19.5983 9.3627L19.5869 9.35147L19.5754 9.33996H19.5638C19.0751 8.87412 18.7657 8.56091 18.6361 8.40055C18.399 8.09508 18.3459 7.78587 18.4755 7.47258C18.567 7.23587 18.9109 6.73598 19.5064 5.97222C19.8196 5.56745 20.0677 5.24304 20.2509 4.99863C21.572 3.24219 22.1448 2.1198 21.9691 1.63102L21.9009 1.5168C21.855 1.44803 21.7367 1.38513 21.546 1.32775C21.3548 1.2705 21.1105 1.26104 20.8127 1.29919L17.5138 1.32198C17.4604 1.30304 17.3841 1.30481 17.2847 1.32775C17.1854 1.3507 17.1357 1.36222 17.1357 1.36222L17.0783 1.3909L17.0327 1.42537C16.9945 1.44815 16.9525 1.48823 16.9067 1.54553C16.8611 1.60262 16.8229 1.66962 16.7924 1.74596C16.4333 2.66996 16.0249 3.52905 15.5666 4.32318C15.2841 4.79671 15.0246 5.2071 14.7876 5.55457C14.5509 5.90193 14.3524 6.15785 14.1921 6.3219C14.0317 6.48611 13.8868 6.61767 13.7568 6.71704C13.6269 6.81646 13.5277 6.85847 13.4591 6.8431C13.3903 6.82773 13.3255 6.81249 13.2642 6.79724C13.1573 6.72848 13.0714 6.63496 13.0066 6.51661C12.9415 6.39825 12.8977 6.24929 12.8748 6.06983C12.852 5.89026 12.8385 5.7358 12.8347 5.60593C12.8311 5.47622 12.8328 5.29275 12.8405 5.05605C12.8484 4.81922 12.852 4.65898 12.852 4.57497C12.852 4.28474 12.8577 3.96976 12.869 3.62995C12.8806 3.29013 12.8899 3.02089 12.8977 2.82254C12.9055 2.62398 12.9091 2.41392 12.9091 2.19246C12.9091 1.971 12.8957 1.79732 12.869 1.67126C12.8427 1.54536 12.8023 1.42316 12.7491 1.30469C12.6955 1.18633 12.6171 1.09478 12.5142 1.02979C12.4112 0.964872 12.283 0.913358 12.1305 0.875084C11.7258 0.78349 11.2103 0.733942 10.584 0.726239C9.16376 0.710994 8.25115 0.802707 7.84643 1.00126C7.68607 1.08515 7.54095 1.19977 7.41121 1.34477C7.27372 1.51283 7.25454 1.60454 7.3538 1.61963C7.81204 1.68827 8.13645 1.85248 8.32738 2.1121L8.39619 2.24967C8.44971 2.34892 8.50315 2.52465 8.55663 2.7766C8.61003 3.02855 8.64449 3.30726 8.65965 3.61258C8.69777 4.17012 8.69777 4.64739 8.65965 5.04441C8.62142 5.4416 8.58531 5.7508 8.55085 5.97226C8.51639 6.19372 8.46487 6.37318 8.39619 6.51059C8.32738 6.64804 8.2816 6.73205 8.25866 6.76254C8.23575 6.79303 8.21665 6.81225 8.20149 6.81979C8.10223 6.85782 7.999 6.8772 7.89216 6.8772C7.78516 6.8772 7.65542 6.82368 7.50272 6.71672C7.35006 6.60976 7.19163 6.46285 7.02742 6.27573C6.86321 6.08857 6.67802 5.82703 6.47176 5.49106C6.26567 5.1551 6.05183 4.75804 5.83037 4.29987L5.64714 3.9676C5.5326 3.75384 5.37613 3.44259 5.17758 3.03413C4.9789 2.62551 4.8033 2.23025 4.65064 1.84843C4.58962 1.68807 4.49795 1.56599 4.37578 1.48198L4.31845 1.44751C4.28034 1.41702 4.21916 1.38464 4.13523 1.35014C4.05117 1.31568 3.96347 1.29096 3.87176 1.27576L0.733229 1.29855C0.412512 1.29855 0.194902 1.3712 0.0803198 1.51632L0.0344629 1.58496C0.0115545 1.6232 0 1.68426 0 1.76831C0 1.85232 0.0229084 1.95543 0.0687653 2.07751C0.526933 3.15433 1.02518 4.19283 1.56351 5.19317C2.10184 6.19352 2.56963 6.99933 2.96662 7.60987C3.36368 8.22085 3.76841 8.79749 4.1808 9.33951C4.59319 9.88173 4.86617 10.2292 4.99973 10.3819C5.13345 10.5348 5.23848 10.6491 5.31483 10.7255L5.60124 11.0004C5.78451 11.1837 6.05363 11.4032 6.40873 11.659C6.76391 11.9149 7.15713 12.1668 7.58858 12.4152C8.0201 12.6632 8.52212 12.8656 9.09491 13.0221C9.66762 13.1787 10.225 13.2416 10.7673 13.2113H12.0846C12.3517 13.1882 12.5541 13.1042 12.6917 12.9592L12.7373 12.9018C12.7679 12.8562 12.7966 12.7854 12.8231 12.6901C12.8499 12.5947 12.8632 12.4895 12.8632 12.3751C12.8554 12.0468 12.8804 11.751 12.9375 11.4875C12.9946 11.2242 13.0597 11.0256 13.1324 10.8919C13.2052 10.7583 13.2873 10.6456 13.3786 10.5542C13.4702 10.4626 13.5354 10.4071 13.5737 10.388C13.6117 10.3688 13.6421 10.3557 13.665 10.3479C13.8483 10.2869 14.0639 10.346 14.3124 10.5256C14.5606 10.7051 14.7934 10.9267 15.0112 11.19C15.2288 11.4536 15.4903 11.7493 15.7957 12.0776C16.1013 12.406 16.3685 12.6502 16.5975 12.8108L16.8265 12.9482C16.9795 13.0399 17.178 13.1239 17.4224 13.2003C17.6664 13.2766 17.8801 13.2957 18.0637 13.2575L20.9959 13.2118C21.2859 13.2118 21.5116 13.1638 21.6717 13.0685C21.8321 12.973 21.9274 12.8679 21.9581 12.7535C21.9888 12.639 21.9904 12.5091 21.9639 12.3639C21.9368 12.219 21.91 12.1177 21.8834 12.0604Z" fill="#fff"/>
			</g>
		</svg>

		<svg viewBox="0 0 15 15" fill="none" xmlns="http://www.w3.org/2000/svg">
			<g id="insta" class="img">
				<path d="M12.8027 0H2.19727C0.985794 0 0 0.985794 0 2.19727V12.8027C0 14.0142 0.985794 15 2.19727 15H12.8027C14.0142 15 15 14.0142 15 12.8027V2.19727C15 0.985794 14.0142 0 12.8027 0ZM7.5293 11.4258C5.3484 11.4258 3.57422 9.6516 3.57422 7.4707C3.57422 5.2898 5.3484 3.51562 7.5293 3.51562C9.7102 3.51562 11.4844 5.2898 11.4844 7.4707C11.4844 9.6516 9.7102 11.4258 7.5293 11.4258ZM11.9238 4.39453C11.1969 4.39453 10.6055 3.8031 10.6055 3.07617C10.6055 2.34924 11.1969 1.75781 11.9238 1.75781C12.6508 1.75781 13.2422 2.34924 13.2422 3.07617C13.2422 3.8031 12.6508 4.39453 11.9238 4.39453Z" fill="#FFDD29"/>
				<path d="M11.9238 2.63672C11.6813 2.63672 11.4844 2.83367 11.4844 3.07617C11.4844 3.31867 11.6813 3.51562 11.9238 3.51562C12.1663 3.51562 12.3633 3.31867 12.3633 3.07617C12.3633 2.83367 12.1663 2.63672 11.9238 2.63672Z" fill="#FFDD29"/>
				<path d="M7.5293 4.39453C5.83328 4.39453 4.45312 5.77469 4.45312 7.4707C4.45312 9.16672 5.83328 10.5469 7.5293 10.5469C9.22531 10.5469 10.6055 9.16672 10.6055 7.4707C10.6055 5.77469 9.22531 4.39453 7.5293 4.39453Z" fill="#FFDD29"/>
			</g>
		</svg>
		<svg viewBox="0 0 15 15" fill="none" xmlns="http://www.w3.org/2000/svg">
			<g id="insta-white" class="img">
				<path d="M12.8027 0H2.19727C0.985794 0 0 0.985794 0 2.19727V12.8027C0 14.0142 0.985794 15 2.19727 15H12.8027C14.0142 15 15 14.0142 15 12.8027V2.19727C15 0.985794 14.0142 0 12.8027 0ZM7.5293 11.4258C5.3484 11.4258 3.57422 9.6516 3.57422 7.4707C3.57422 5.2898 5.3484 3.51562 7.5293 3.51562C9.7102 3.51562 11.4844 5.2898 11.4844 7.4707C11.4844 9.6516 9.7102 11.4258 7.5293 11.4258ZM11.9238 4.39453C11.1969 4.39453 10.6055 3.8031 10.6055 3.07617C10.6055 2.34924 11.1969 1.75781 11.9238 1.75781C12.6508 1.75781 13.2422 2.34924 13.2422 3.07617C13.2422 3.8031 12.6508 4.39453 11.9238 4.39453Z" fill="#fff"/>
				<path d="M11.9238 2.63672C11.6813 2.63672 11.4844 2.83367 11.4844 3.07617C11.4844 3.31867 11.6813 3.51562 11.9238 3.51562C12.1663 3.51562 12.3633 3.31867 12.3633 3.07617C12.3633 2.83367 12.1663 2.63672 11.9238 2.63672Z" fill="#fff"/>
				<path d="M7.5293 4.39453C5.83328 4.39453 4.45312 5.77469 4.45312 7.4707C4.45312 9.16672 5.83328 10.5469 7.5293 10.5469C9.22531 10.5469 10.6055 9.16672 10.6055 7.4707C10.6055 5.77469 9.22531 4.39453 7.5293 4.39453Z" fill="#fff"/>
			</g>
		</svg>

		<svg viewBox="0 0 14 15" fill="none" xmlns="http://www.w3.org/2000/svg">
			<g id="facebook" class="img">
				<path d="M13.2272 1.69673e-08H0.772119C0.345642 0.000274676 -8.54334e-05 0.37088 1.58362e-08 0.828003V14.1727C0.000256365 14.6297 0.346155 15.0001 0.772803 15H7.47852V9.19922H5.66016V6.92871H7.47852V5.25778C7.47852 3.32007 8.5826 2.26538 10.1959 2.26538C10.9686 2.26538 11.6326 2.32709 11.8262 2.35464V4.37988H10.7137C9.83597 4.37988 9.66602 4.82675 9.66602 5.48264V6.92871H11.7646L11.4912 9.19922H9.66602V15H13.2272C13.6539 15.0001 13.9999 14.6296 14 14.1724C14 14.1723 14 14.1722 14 14.172V0.827271C13.9998 0.370331 13.6538 -9.15358e-05 13.2272 1.69673e-08Z" fill="#FFDD29"/>
			</g>
		</svg>
		<svg viewBox="0 0 14 15" fill="none" xmlns="http://www.w3.org/2000/svg">
			<g id="facebook-white" class="img">
				<path d="M13.2272 1.69673e-08H0.772119C0.345642 0.000274676 -8.54334e-05 0.37088 1.58362e-08 0.828003V14.1727C0.000256365 14.6297 0.346155 15.0001 0.772803 15H7.47852V9.19922H5.66016V6.92871H7.47852V5.25778C7.47852 3.32007 8.5826 2.26538 10.1959 2.26538C10.9686 2.26538 11.6326 2.32709 11.8262 2.35464V4.37988H10.7137C9.83597 4.37988 9.66602 4.82675 9.66602 5.48264V6.92871H11.7646L11.4912 9.19922H9.66602V15H13.2272C13.6539 15.0001 13.9999 14.6296 14 14.1724C14 14.1723 14 14.1722 14 14.172V0.827271C13.9998 0.370331 13.6538 -9.15358e-05 13.2272 1.69673e-08Z" fill="#fff"/>
			</g>
		</svg>


		<svg viewBox="0 0 22 22" fill="none" xmlns="http://www.w3.org/2000/svg">
			<g id="crown" class="img">
				<path d="M18.8981 15.8125L18.5454 17.3422C18.4732 17.6543 18.1954 17.875 17.875 17.875H4.12505C3.80468 17.875 3.52693 17.6543 3.45474 17.3422L3.10205 15.8125H18.8981Z" fill="#FFDD29"/>
				<path d="M20.6077 8.40435L19.2155 14.4372H2.78425L1.39206 8.40435C1.33087 8.13828 1.43262 7.86053 1.65193 7.6976C1.87193 7.53466 2.16687 7.51747 2.40337 7.65291L6.65831 10.0846L10.4272 4.43128C10.5502 4.24703 10.7537 4.13291 10.9744 4.12466C11.1972 4.11503 11.4069 4.21541 11.5423 4.39003L15.9622 10.0729L19.5558 7.67766C19.7902 7.52228 20.0962 7.52366 20.3279 7.68385C20.5602 7.84403 20.6702 8.13003 20.6077 8.40435Z" fill="#FFDD29"/>
			</g>
		</svg>

		<svg viewBox="0 0 172 309" fill="none" xmlns="http://www.w3.org/2000/svg">
			<g id="peshka" class="img">
				<path d="M86.2702 308.788C115.231 308.788 155.601 306.595 169.643 302.209C174.47 300.893 171.398 283.787 164.816 280.278C171.398 261.856 171.837 250.452 150.336 237.293C143.754 233.346 136.294 225.012 133.222 217.555C129.273 208.344 144.192 202.204 136.733 197.817C131.467 194.747 122.252 200.888 113.915 160.096C110.405 143.867 108.649 122.375 119.619 119.305C133.661 114.918 144.631 108.778 135.855 102.198C129.273 96.9349 117.864 99.128 109.966 92.9873C98.1179 83.7763 115.67 84.2149 128.395 64.9157C135.855 53.5116 136.294 35.0896 129.273 22.3696C121.375 7.89518 104.7 0 86.2702 0H85.8314C67.8404 0 51.1658 7.89518 42.8285 22.3696C35.8076 35.0896 36.2465 53.5116 43.7062 64.9157C56.4315 84.2149 73.9837 83.7763 62.136 92.9873C54.2375 99.128 42.8285 96.9349 36.2464 102.198C27.9092 108.778 38.4405 115.357 52.4823 119.305C63.0136 122.375 61.2583 143.867 58.1867 160.096C49.8494 200.888 40.6345 194.747 35.3689 197.817C27.9092 201.765 42.8285 207.906 38.8793 217.555C35.8077 225.012 28.348 233.346 21.7659 237.293C0.264509 250.452 0.264495 261.856 7.28537 280.278C0.264495 284.225 -2.36836 300.893 2.45849 302.209C16.939 306.595 57.3091 308.788 86.2702 308.788Z" fill="#FAB544"/>
				<path d="M86.27 308.789C115.231 309.666 155.601 306.595 169.643 302.209C174.47 300.893 171.398 283.787 164.816 280.278C171.398 261.856 171.837 250.452 150.335 237.294C143.753 233.346 136.294 225.012 133.222 217.556C129.273 208.345 144.192 202.204 136.733 197.818C131.467 194.747 122.252 200.888 113.915 160.096C110.404 143.868 108.649 122.375 119.619 119.305C133.661 114.919 144.631 108.778 135.855 102.199C129.273 96.9353 117.864 99.1284 109.965 92.9877C98.1177 83.7767 115.67 84.2153 128.395 64.9161C135.855 53.5119 136.294 35.0899 129.273 22.37C125.762 15.7907 117.425 7.45691 109.527 4.8252C136.294 53.512 73.1058 100.006 39.7567 56.5823C40.1955 57.8981 41.5119 61.8457 43.2671 64.4774C45.4612 67.5478 47.2164 70.6181 49.8492 72.8112C55.1149 77.636 60.8193 82.0222 67.4014 85.0925C81.8819 92.1105 98.1177 92.9877 113.037 98.6897C114.792 99.1284 116.986 100.006 117.425 101.76C118.742 105.708 114.792 107.901 109.527 109.217C73.5447 117.989 41.5119 114.48 32.7358 107.462C33.6135 113.164 46.3388 117.55 52.0432 119.305C66.9626 123.691 100.751 146.938 108.649 182.027C109.088 184.221 108.649 186.414 107.771 188.607C106.894 190.8 106.016 192.554 104.7 193.87C97.6789 201.765 85.8312 203.081 75.2999 203.958C63.4522 204.836 51.1656 205.713 39.3179 203.52C38.0015 204.397 39.3179 206.152 40.6343 207.029C59.9417 219.31 83.6371 223.258 104.261 233.346C110.404 236.416 116.109 239.925 119.18 246.066C123.13 253.961 120.497 264.049 114.353 270.19C106.455 278.085 94.6073 280.278 83.1984 280.717C62.1358 281.594 41.5119 279.84 20.4493 276.769C5.52995 274.576 13.8672 282.033 15.1837 283.349C33.6135 300.455 -46.6878 304.841 86.27 308.789Z" fill="#A66715"/>
			</g>
		</svg>




















</svg>